<?xml version="1.0" standalone="no"?>
<!DOCTYPE svg PUBLIC "-//W3C//DTD SVG 20010904//EN"
 "http://www.w3.org/TR/2001/REC-SVG-20010904/DTD/svg10.dtd">
<svg version="1.0" xmlns="http://www.w3.org/2000/svg"
 width="260.000000pt" height="260.000000pt" viewBox="0 0 260.000000 260.000000"
 preserveAspectRatio="xMidYMid meet">
<metadata>
Created by potrace 1.11, written by Peter Selinger 2001-2013
</metadata>
<g transform="translate(0.000000,260.000000) scale(0.100000,-0.100000)"
fill="#000000" stroke="none">
<path d="M1730 2158 c-17 -46 -43 -112 -56 -148 -14 -36 -29 -75 -34 -88 -16
-36 -12 -46 23 -67 50 -29 145 -124 188 -187 46 -67 94 -184 104 -249 l7 -47
56 -6 c32 -3 122 -8 200 -12 l144 -7 -7 59 c-37 301 -189 567 -425 740 -65 48
-142 94 -158 94 -6 0 -25 -37 -42 -82z"/>
<path d="M422 1884 c-77 -115 -138 -265 -163 -404 -18 -97 -15 -280 5 -384 18
-92 81 -266 97 -266 7 0 303 186 327 205 1 1 -8 28 -20 61 -18 50 -22 81 -22
199 -1 160 13 218 84 339 22 37 40 69 40 71 0 3 -279 228 -295 237 -6 4 -30
-23 -53 -58z"/>
<path d="M1948 1153 c-43 -187 -178 -360 -345 -443 -24 -12 -42 -27 -40 -34 2
-6 26 -90 52 -186 26 -96 48 -176 50 -178 2 -2 38 12 80 32 240 111 429 307
533 551 30 73 72 233 72 278 0 28 12 26 -280 43 l-105 6 -17 -69z"/>
<path d="M603 804 c-87 -57 -159 -107 -160 -111 -2 -5 23 -40 55 -78 192 -228
482 -363 782 -366 106 -2 208 7 227 19 10 6 -11 95 -74 320 l-14 52 -109 0
c-190 0 -342 62 -478 195 l-72 71 -157 -102z"/>
</g>
</svg>
